<svg xmlns="http://www.w3.org/2000/svg" width="256" height="256" viewBox="0 0 256 256" fill="none">
  <defs>
    <linearGradient id="g" x1="40" y1="24" x2="216" y2="232" gradientUnits="userSpaceOnUse">
      <stop stop-color="#ff7aa2"/><stop offset="1" stop-color="#7ae0ff"/>
    </linearGradient>
    <filter id="glow" x="-30%" y="-30%" width="160%" height="160%">
      <feGaussianBlur stdDeviation="6" result="b"/>
      <feMerge><feMergeNode in="b"/><feMergeNode in="SourceGraphic"/></feMerge>
    </filter>
  </defs>
  <rect x="24" y="24" width="208" height="208" rx="48" fill="#0b1220"/>
  <path d="M86 112c-16 0-28-12-28-27 0-14 11-25 25-25 11 0 20 6 25 14 5-8 14-14 25-14 14 0 25 11 25 25 0 15-12 27-28 27-9 0-17-4-22-10-5 6-13 10-22 10Z" fill="url(#g)" filter="url(#glow)"/>
  <path d="M112 154c-20-18-34-30-34-48 0-14 11-24 25-24 10 0 18 5 22 12 4-7 12-12 22-12 14 0 25 10 25 24 0 18-14 30-34 48l-13 12-13-12Z" fill="#ffd36e" filter="url(#glow)"/>
  <path d="M170 136c10 0 18-8 18-18 0-9-7-16-16-16-7 0-13 4-16 9-3-5-9-9-16-9-9 0-16 7-16 16 0 10 8 18 18 18 6 0 11-3 14-6 3 3 8 6 14 6Z" fill="url(#g)" opacity="0.85"/>
</svg>
